<svg xmlns="http://www.w3.org/2000/svg" xmlns:xlink="http://www.w3.org/1999/xlink" class="card" preserveAspectRatio="none" viewBox="-106 -164.5 212 329"><symbol id="a" preserveAspectRatio="none" viewBox="0 0 1300 2000"><path fill="#FC4" d="M1095 1000a445 445 0 01-445 445 445 445 0 01-445-445 445 445 0 01445-445 445 445 0 01445 445z"/></symbol><symbol id="b" preserveAspectRatio="none" viewBox="0 0 1300 2000"><path fill="red" d="M317.057 1294.416L100 1620l220-60 40 240 140-200 160 200 40-200 180 180 60-220 260 60-236.68-304.303A445 445 0 01650 1445a445 445 0 01-332.943-150.584zM831.715 249.107C687.944 262.66 542.48 256.337 420 520c-50.92-188.617-141.385-149.387-232.229-107.986a75 75 0 012.524 19.127 75 75 0 01-16.785 47.195C240.337 533.59 291.085 606.16 329.285 692.24A445 445 0 01650 555a445 445 0 01274.34 95.266c42.399-50.456 91.6-93.347 167.512-106.534a75 75 0 01-.653-9.142 75 75 0 0114.617-44.346C1026.352 437.474 931.121 446.832 840 440c-78.02-51.924-35.898-101.821 13.518-151.596a75 75 0 01-21.803-39.297z"/></symbol><symbol id="c" preserveAspectRatio="none" viewBox="0 0 1300 2000"><path fill="#44F" d="M879.655 937.603a40 40 0 01-40 40 40 40 0 01-40-40 40 40 0 0140-40 40 40 0 0140 40zm-379.31 0a40 40 0 01-40 40 40 40 0 01-40-40 40 40 0 0140-40 40 40 0 0140 40z"/></symbol><symbol id="d" preserveAspectRatio="none" viewBox="0 0 1300 2000"><path stroke="#44F" stroke-linecap="round" stroke-linejoin="round" stroke-width="6" fill="none" d="M317.057 1294.416L100 1620l220-60 40 240 140-200 160 200 40-200 180 180 60-220 260 60-236.68-304.303M1241.2 534.59a75 75 0 01-75 75 75 75 0 01-75-75 75 75 0 0175-75 75 75 0 0175 75zM980.115 234.097a75 75 0 01-75 75 75 75 0 01-75-75 75 75 0 0175-75 75 75 0 0175 75zM190.295 431.14a75 75 0 01-75 75 75 75 0 01-75-75 75 75 0 0175-75 75 75 0 0175 75zm734.05 219.13c42.402-50.453 91.594-93.353 167.507-106.539a74.998 74.998 0 01-.653-9.142 75.002 75.002 0 0114.617-44.346C1026.352 437.474 931.121 446.832 840 440c-78.02-51.924-35.898-101.821 13.518-151.596a75 75 0 01-21.803-39.297C687.944 262.66 542.48 256.337 420 520c-50.92-188.617-141.385-149.387-232.229-107.986a75 75 0 012.524 19.127 75 75 0 01-16.783 47.193c66.827 55.255 117.568 127.83 155.77 213.91M384.888 1140c51.89 98.343 153.918 159.919 265.111 160 111.198-.076 213.233-61.653 265.125-160M1095 1000a445 445 0 01-445 445 445 445 0 01-445-445 445 445 0 01445-445 445 445 0 01445 445z"/></symbol><rect width="211" height="328" x="-105.5" y="-164" rx="12" ry="12" fill="#fff" stroke="#000"/><use width="188" height="289.23" x="-94" y="-144.615" xlink:href="#a"/><use width="188" height="289.23" x="-94" y="-144.615" xlink:href="#b"/><use width="188" height="289.23" x="-94" y="-144.615" xlink:href="#c"/><use width="188" height="289.23" x="-94" y="-144.615" xlink:href="#d"/></svg>